<svg id="Ebene_1" data-name="Ebene 1" xmlns="http://www.w3.org/2000/svg" viewBox="0 0 1001.8 233.34"><defs><style>.cls-1{fill:#010101;}</style></defs><title>Zeichenfläche 1</title><polygon class="cls-1" points="129.62 29.87 44.42 115.07 54.16 124.8 129.62 49.35 205.07 124.8 214.81 115.07 129.62 29.87"/><path class="cls-1" d="M129.61,90a52.6,52.6,0,0,0-18.74,101.76V176.58a38.8,38.8,0,0,1,11.86-72.21v95.89H136.5V104.37a38.8,38.8,0,0,1,11.86,72.21v15.13A52.6,52.6,0,0,0,129.61,90Z"/><polygon class="cls-1" points="860.75 60.41 772.33 60.41 772.33 74.18 809.65 74.18 809.65 178.31 823.42 178.31 823.42 74.18 860.75 74.18 860.75 60.41"/><polygon class="cls-1" points="356.75 60.41 268.34 60.41 268.34 74.18 305.66 74.18 305.66 178.31 319.43 178.31 319.43 74.18 356.75 74.18 356.75 60.41"/><path class="cls-1" d="M438.11,178.31h15.28C441,152.94,409.54,83.52,409.54,60.41H395.12c0,23.11-31.45,92.53-43.84,117.9h15.27c3.68-7.74,10.14-21.59,16.91-37.4H421.2C428,156.72,434.43,170.57,438.11,178.31Zm-48.89-51.17c4.87-12,9.54-24.32,13.11-35.57,3.57,11.25,8.25,23.62,13.12,35.57Z"/><path class="cls-1" d="M942.1,178.31h15.28C945,152.94,913.53,83.52,913.53,60.41H899.11c0,23.11-31.45,92.53-43.84,117.9h15.27c3.69-7.74,10.14-21.59,16.91-37.4h37.74C932,156.72,938.42,170.57,942.1,178.31Zm-48.89-51.17c4.87-12,9.54-24.32,13.11-35.57,3.57,11.25,8.25,23.62,13.12,35.57Z"/><path class="cls-1" d="M718.75,74.18c20.49,0,37.17,20.27,37.17,45.18s-16.68,45.18-37.17,45.18-37.17-20.27-37.17-45.18,16.67-45.18,37.17-45.18m0-13.77c-28.14,0-50.94,26.39-50.94,59s22.8,59,50.94,59,50.94-26.39,50.94-58.95-22.81-58.95-50.94-58.95Z"/><path class="cls-1" d="M499,179.46a36.24,36.24,0,0,1-36.08-36.31h13.77a22.31,22.31,0,1,0,44.62,0,22.86,22.86,0,0,0-6.21-15.61c-4-4.2-9-6.29-16.85-7-9-.8-15.95-3.92-21.15-9.53a30.53,30.53,0,0,1-8-20.51,29.92,29.92,0,1,1,59.84,0H515.15a16.15,16.15,0,1,0-32.3,0,16.55,16.55,0,0,0,4.36,11.15c2.85,3.08,6.63,4.68,12.26,5.17,7,.63,17.3,2.48,25.61,11.23a36.78,36.78,0,0,1,10,25.09A36.24,36.24,0,0,1,499,179.46Z"/><path class="cls-1" d="M647.64,60.49h0v-.08H633.83v.37c-.43,4.58-11.31,16.49-31.28,30.67-22.19-15.75-30.87-26.9-31.28-30.67v-.37H557.51v.08h0c0,.17,0,.34,0,.51V178.31h13.76V83.72q10.08,9.91,27.43,21.83l3.88,2.61,3.86-2.64q17.34-11.86,27.39-21.78v94.57h13.76V61C647.6,60.85,647.64,60.67,647.64,60.49Z"/></svg>