G04 #@! TF.GenerationSoftware,KiCad,Pcbnew,(5.1.9)-1*
G04 #@! TF.CreationDate,2021-02-03T10:13:10+01:00*
G04 #@! TF.ProjectId,epaper-breakout,65706170-6572-42d6-9272-65616b6f7574,rev?*
G04 #@! TF.SameCoordinates,Original*
G04 #@! TF.FileFunction,Legend,Bot*
G04 #@! TF.FilePolarity,Positive*
%FSLAX46Y46*%
G04 Gerber Fmt 4.6, Leading zero omitted, Abs format (unit mm)*
G04 Created by KiCad (PCBNEW (5.1.9)-1) date 2021-02-03 10:13:10*
%MOMM*%
%LPD*%
G01*
G04 APERTURE LIST*
%ADD10C,0.200000*%
%ADD11C,0.150000*%
%ADD12C,0.100000*%
G04 APERTURE END LIST*
D10*
X39467285Y-46115571D02*
X39967285Y-45401285D01*
X40324428Y-46115571D02*
X40324428Y-44615571D01*
X39753000Y-44615571D01*
X39610142Y-44687000D01*
X39538714Y-44758428D01*
X39467285Y-44901285D01*
X39467285Y-45115571D01*
X39538714Y-45258428D01*
X39610142Y-45329857D01*
X39753000Y-45401285D01*
X40324428Y-45401285D01*
X38967285Y-44615571D02*
X37967285Y-46115571D01*
X37967285Y-44615571D02*
X38967285Y-46115571D01*
X34181571Y-44615571D02*
X33324428Y-44615571D01*
X33753000Y-46115571D02*
X33753000Y-44615571D01*
X32967285Y-44615571D02*
X31967285Y-46115571D01*
X31967285Y-44615571D02*
X32967285Y-46115571D01*
X39753000Y-48565571D02*
X40610142Y-48565571D01*
X40181571Y-48565571D02*
X40181571Y-47065571D01*
X40324428Y-47279857D01*
X40467285Y-47422714D01*
X40610142Y-47494142D01*
X38467285Y-47565571D02*
X38467285Y-48565571D01*
X38824428Y-46994142D02*
X39181571Y-48065571D01*
X38253000Y-48065571D01*
X33467285Y-48565571D02*
X34324428Y-48565571D01*
X33895857Y-48565571D02*
X33895857Y-47065571D01*
X34038714Y-47279857D01*
X34181571Y-47422714D01*
X34324428Y-47494142D01*
X32895857Y-47208428D02*
X32824428Y-47137000D01*
X32681571Y-47065571D01*
X32324428Y-47065571D01*
X32181571Y-47137000D01*
X32110142Y-47208428D01*
X32038714Y-47351285D01*
X32038714Y-47494142D01*
X32110142Y-47708428D01*
X32967285Y-48565571D01*
X32038714Y-48565571D01*
X46753000Y-49515571D02*
X45824428Y-49515571D01*
X46324428Y-50087000D01*
X46110142Y-50087000D01*
X45967285Y-50158428D01*
X45895857Y-50229857D01*
X45824428Y-50372714D01*
X45824428Y-50729857D01*
X45895857Y-50872714D01*
X45967285Y-50944142D01*
X46110142Y-51015571D01*
X46538714Y-51015571D01*
X46681571Y-50944142D01*
X46753000Y-50872714D01*
X44467285Y-49515571D02*
X45181571Y-49515571D01*
X45253000Y-50229857D01*
X45181571Y-50158428D01*
X45038714Y-50087000D01*
X44681571Y-50087000D01*
X44538714Y-50158428D01*
X44467285Y-50229857D01*
X44395857Y-50372714D01*
X44395857Y-50729857D01*
X44467285Y-50872714D01*
X44538714Y-50944142D01*
X44681571Y-51015571D01*
X45038714Y-51015571D01*
X45181571Y-50944142D01*
X45253000Y-50872714D01*
X42681571Y-49444142D02*
X43967285Y-51372714D01*
X42395857Y-49515571D02*
X41538714Y-49515571D01*
X41967285Y-51015571D02*
X41967285Y-49515571D01*
X41038714Y-51015571D02*
X41038714Y-50015571D01*
X41038714Y-50158428D02*
X40967285Y-50087000D01*
X40824428Y-50015571D01*
X40610142Y-50015571D01*
X40467285Y-50087000D01*
X40395857Y-50229857D01*
X40395857Y-51015571D01*
X40395857Y-50229857D02*
X40324428Y-50087000D01*
X40181571Y-50015571D01*
X39967285Y-50015571D01*
X39824428Y-50087000D01*
X39753000Y-50229857D01*
X39753000Y-51015571D01*
X39038714Y-50015571D02*
X39038714Y-51515571D01*
X39038714Y-50087000D02*
X38895857Y-50015571D01*
X38610142Y-50015571D01*
X38467285Y-50087000D01*
X38395857Y-50158428D01*
X38324428Y-50301285D01*
X38324428Y-50729857D01*
X38395857Y-50872714D01*
X38467285Y-50944142D01*
X38610142Y-51015571D01*
X38895857Y-51015571D01*
X39038714Y-50944142D01*
X33467285Y-51015571D02*
X34324428Y-51015571D01*
X33895857Y-51015571D02*
X33895857Y-49515571D01*
X34038714Y-49729857D01*
X34181571Y-49872714D01*
X34324428Y-49944142D01*
X32967285Y-49515571D02*
X32038714Y-49515571D01*
X32538714Y-50087000D01*
X32324428Y-50087000D01*
X32181571Y-50158428D01*
X32110142Y-50229857D01*
X32038714Y-50372714D01*
X32038714Y-50729857D01*
X32110142Y-50872714D01*
X32181571Y-50944142D01*
X32324428Y-51015571D01*
X32753000Y-51015571D01*
X32895857Y-50944142D01*
X32967285Y-50872714D01*
X41181571Y-52037000D02*
X41324428Y-51965571D01*
X41538714Y-51965571D01*
X41753000Y-52037000D01*
X41895857Y-52179857D01*
X41967285Y-52322714D01*
X42038714Y-52608428D01*
X42038714Y-52822714D01*
X41967285Y-53108428D01*
X41895857Y-53251285D01*
X41753000Y-53394142D01*
X41538714Y-53465571D01*
X41395857Y-53465571D01*
X41181571Y-53394142D01*
X41110142Y-53322714D01*
X41110142Y-52822714D01*
X41395857Y-52822714D01*
X40467285Y-53465571D02*
X40467285Y-51965571D01*
X39610142Y-53465571D01*
X39610142Y-51965571D01*
X38895857Y-53465571D02*
X38895857Y-51965571D01*
X38538714Y-51965571D01*
X38324428Y-52037000D01*
X38181571Y-52179857D01*
X38110142Y-52322714D01*
X38038714Y-52608428D01*
X38038714Y-52822714D01*
X38110142Y-53108428D01*
X38181571Y-53251285D01*
X38324428Y-53394142D01*
X38538714Y-53465571D01*
X38895857Y-53465571D01*
X36395857Y-51965571D02*
X35467285Y-51965571D01*
X35967285Y-52537000D01*
X35753000Y-52537000D01*
X35610142Y-52608428D01*
X35538714Y-52679857D01*
X35467285Y-52822714D01*
X35467285Y-53179857D01*
X35538714Y-53322714D01*
X35610142Y-53394142D01*
X35753000Y-53465571D01*
X36181571Y-53465571D01*
X36324428Y-53394142D01*
X36395857Y-53322714D01*
X34824428Y-53322714D02*
X34753000Y-53394142D01*
X34824428Y-53465571D01*
X34895857Y-53394142D01*
X34824428Y-53322714D01*
X34824428Y-53465571D01*
X34253000Y-51965571D02*
X33324428Y-51965571D01*
X33824428Y-52537000D01*
X33610142Y-52537000D01*
X33467285Y-52608428D01*
X33395857Y-52679857D01*
X33324428Y-52822714D01*
X33324428Y-53179857D01*
X33395857Y-53322714D01*
X33467285Y-53394142D01*
X33610142Y-53465571D01*
X34038714Y-53465571D01*
X34181571Y-53394142D01*
X34253000Y-53322714D01*
X32895857Y-51965571D02*
X32395857Y-53465571D01*
X31895857Y-51965571D01*
X40538714Y-54415571D02*
X39610142Y-54415571D01*
X40110142Y-54987000D01*
X39895857Y-54987000D01*
X39753000Y-55058428D01*
X39681571Y-55129857D01*
X39610142Y-55272714D01*
X39610142Y-55629857D01*
X39681571Y-55772714D01*
X39753000Y-55844142D01*
X39895857Y-55915571D01*
X40324428Y-55915571D01*
X40467285Y-55844142D01*
X40538714Y-55772714D01*
X38324428Y-54915571D02*
X38324428Y-55915571D01*
X38681571Y-54344142D02*
X39038714Y-55415571D01*
X38110142Y-55415571D01*
X33395857Y-54415571D02*
X34110142Y-54415571D01*
X34181571Y-55129857D01*
X34110142Y-55058428D01*
X33967285Y-54987000D01*
X33610142Y-54987000D01*
X33467285Y-55058428D01*
X33395857Y-55129857D01*
X33324428Y-55272714D01*
X33324428Y-55629857D01*
X33395857Y-55772714D01*
X33467285Y-55844142D01*
X33610142Y-55915571D01*
X33967285Y-55915571D01*
X34110142Y-55844142D01*
X34181571Y-55772714D01*
X32895857Y-54415571D02*
X32395857Y-55915571D01*
X31895857Y-54415571D01*
X40681571Y-56865571D02*
X39753000Y-56865571D01*
X40253000Y-57437000D01*
X40038714Y-57437000D01*
X39895857Y-57508428D01*
X39824428Y-57579857D01*
X39753000Y-57722714D01*
X39753000Y-58079857D01*
X39824428Y-58222714D01*
X39895857Y-58294142D01*
X40038714Y-58365571D01*
X40467285Y-58365571D01*
X40610142Y-58294142D01*
X40681571Y-58222714D01*
X38467285Y-56865571D02*
X38753000Y-56865571D01*
X38895857Y-56937000D01*
X38967285Y-57008428D01*
X39110142Y-57222714D01*
X39181571Y-57508428D01*
X39181571Y-58079857D01*
X39110142Y-58222714D01*
X39038714Y-58294142D01*
X38895857Y-58365571D01*
X38610142Y-58365571D01*
X38467285Y-58294142D01*
X38395857Y-58222714D01*
X38324428Y-58079857D01*
X38324428Y-57722714D01*
X38395857Y-57579857D01*
X38467285Y-57508428D01*
X38610142Y-57437000D01*
X38895857Y-57437000D01*
X39038714Y-57508428D01*
X39110142Y-57579857D01*
X39181571Y-57722714D01*
X34395857Y-56865571D02*
X33467285Y-56865571D01*
X33967285Y-57437000D01*
X33753000Y-57437000D01*
X33610142Y-57508428D01*
X33538714Y-57579857D01*
X33467285Y-57722714D01*
X33467285Y-58079857D01*
X33538714Y-58222714D01*
X33610142Y-58294142D01*
X33753000Y-58365571D01*
X34181571Y-58365571D01*
X34324428Y-58294142D01*
X34395857Y-58222714D01*
X32753000Y-58365571D02*
X32467285Y-58365571D01*
X32324428Y-58294142D01*
X32253000Y-58222714D01*
X32110142Y-58008428D01*
X32038714Y-57722714D01*
X32038714Y-57151285D01*
X32110142Y-57008428D01*
X32181571Y-56937000D01*
X32324428Y-56865571D01*
X32610142Y-56865571D01*
X32753000Y-56937000D01*
X32824428Y-57008428D01*
X32895857Y-57151285D01*
X32895857Y-57508428D01*
X32824428Y-57651285D01*
X32753000Y-57722714D01*
X32610142Y-57794142D01*
X32324428Y-57794142D01*
X32181571Y-57722714D01*
X32110142Y-57651285D01*
X32038714Y-57508428D01*
D11*
X78589428Y-51507761D02*
X78684666Y-51555380D01*
X78875142Y-51555380D01*
X78970380Y-51507761D01*
X79018000Y-51412523D01*
X79018000Y-51031571D01*
X78970380Y-50936333D01*
X78875142Y-50888714D01*
X78684666Y-50888714D01*
X78589428Y-50936333D01*
X78541809Y-51031571D01*
X78541809Y-51126809D01*
X79018000Y-51222047D01*
X78113238Y-50888714D02*
X78113238Y-51888714D01*
X78113238Y-50936333D02*
X78018000Y-50888714D01*
X77827523Y-50888714D01*
X77732285Y-50936333D01*
X77684666Y-50983952D01*
X77637047Y-51079190D01*
X77637047Y-51364904D01*
X77684666Y-51460142D01*
X77732285Y-51507761D01*
X77827523Y-51555380D01*
X78018000Y-51555380D01*
X78113238Y-51507761D01*
X76779904Y-51555380D02*
X76779904Y-50555380D01*
X76779904Y-51507761D02*
X76875142Y-51555380D01*
X77065619Y-51555380D01*
X77160857Y-51507761D01*
X77208476Y-51460142D01*
X77256095Y-51364904D01*
X77256095Y-51079190D01*
X77208476Y-50983952D01*
X77160857Y-50936333D01*
X77065619Y-50888714D01*
X76875142Y-50888714D01*
X76779904Y-50936333D01*
X76303714Y-51555380D02*
X76303714Y-50888714D01*
X76303714Y-50555380D02*
X76351333Y-50603000D01*
X76303714Y-50650619D01*
X76256095Y-50603000D01*
X76303714Y-50555380D01*
X76303714Y-50650619D01*
X75922761Y-50888714D02*
X75684666Y-51555380D01*
X75446571Y-50888714D02*
X75684666Y-51555380D01*
X75779904Y-51793476D01*
X75827523Y-51841095D01*
X75922761Y-51888714D01*
X74398952Y-50888714D02*
X74160857Y-51555380D01*
X73922761Y-50888714D01*
X73065619Y-50555380D02*
X73541809Y-50555380D01*
X73589428Y-51031571D01*
X73541809Y-50983952D01*
X73446571Y-50936333D01*
X73208476Y-50936333D01*
X73113238Y-50983952D01*
X73065619Y-51031571D01*
X73018000Y-51126809D01*
X73018000Y-51364904D01*
X73065619Y-51460142D01*
X73113238Y-51507761D01*
X73208476Y-51555380D01*
X73446571Y-51555380D01*
X73541809Y-51507761D01*
X73589428Y-51460142D01*
X85232285Y-53205380D02*
X85232285Y-52205380D01*
X85232285Y-52586333D02*
X85137047Y-52538714D01*
X84946571Y-52538714D01*
X84851333Y-52586333D01*
X84803714Y-52633952D01*
X84756095Y-52729190D01*
X84756095Y-53014904D01*
X84803714Y-53110142D01*
X84851333Y-53157761D01*
X84946571Y-53205380D01*
X85137047Y-53205380D01*
X85232285Y-53157761D01*
X84422761Y-52538714D02*
X84184666Y-53205380D01*
X83946571Y-52538714D02*
X84184666Y-53205380D01*
X84279904Y-53443476D01*
X84327523Y-53491095D01*
X84422761Y-53538714D01*
X82946571Y-52205380D02*
X82613238Y-53205380D01*
X82279904Y-52205380D01*
X81518000Y-53205380D02*
X81518000Y-52681571D01*
X81565619Y-52586333D01*
X81660857Y-52538714D01*
X81851333Y-52538714D01*
X81946571Y-52586333D01*
X81518000Y-53157761D02*
X81613238Y-53205380D01*
X81851333Y-53205380D01*
X81946571Y-53157761D01*
X81994190Y-53062523D01*
X81994190Y-52967285D01*
X81946571Y-52872047D01*
X81851333Y-52824428D01*
X81613238Y-52824428D01*
X81518000Y-52776809D01*
X80898952Y-53205380D02*
X80994190Y-53157761D01*
X81041809Y-53062523D01*
X81041809Y-52205380D01*
X80137047Y-53157761D02*
X80232285Y-53205380D01*
X80422761Y-53205380D01*
X80518000Y-53157761D01*
X80565619Y-53062523D01*
X80565619Y-52681571D01*
X80518000Y-52586333D01*
X80422761Y-52538714D01*
X80232285Y-52538714D01*
X80137047Y-52586333D01*
X80089428Y-52681571D01*
X80089428Y-52776809D01*
X80565619Y-52872047D01*
X79660857Y-52538714D02*
X79660857Y-53205380D01*
X79660857Y-52633952D02*
X79613238Y-52586333D01*
X79518000Y-52538714D01*
X79375142Y-52538714D01*
X79279904Y-52586333D01*
X79232285Y-52681571D01*
X79232285Y-53205380D01*
X78898952Y-52538714D02*
X78518000Y-52538714D01*
X78756095Y-52205380D02*
X78756095Y-53062523D01*
X78708476Y-53157761D01*
X78613238Y-53205380D01*
X78518000Y-53205380D01*
X78184666Y-53205380D02*
X78184666Y-52538714D01*
X78184666Y-52205380D02*
X78232285Y-52253000D01*
X78184666Y-52300619D01*
X78137047Y-52253000D01*
X78184666Y-52205380D01*
X78184666Y-52300619D01*
X77708476Y-52538714D02*
X77708476Y-53205380D01*
X77708476Y-52633952D02*
X77660857Y-52586333D01*
X77565619Y-52538714D01*
X77422761Y-52538714D01*
X77327523Y-52586333D01*
X77279904Y-52681571D01*
X77279904Y-53205380D01*
X75470380Y-53205380D02*
X75803714Y-52729190D01*
X76041809Y-53205380D02*
X76041809Y-52205380D01*
X75660857Y-52205380D01*
X75565619Y-52253000D01*
X75518000Y-52300619D01*
X75470380Y-52395857D01*
X75470380Y-52538714D01*
X75518000Y-52633952D01*
X75565619Y-52681571D01*
X75660857Y-52729190D01*
X76041809Y-52729190D01*
X74898952Y-53205380D02*
X74994190Y-53157761D01*
X75041809Y-53110142D01*
X75089428Y-53014904D01*
X75089428Y-52729190D01*
X75041809Y-52633952D01*
X74994190Y-52586333D01*
X74898952Y-52538714D01*
X74756095Y-52538714D01*
X74660857Y-52586333D01*
X74613238Y-52633952D01*
X74565619Y-52729190D01*
X74565619Y-53014904D01*
X74613238Y-53110142D01*
X74660857Y-53157761D01*
X74756095Y-53205380D01*
X74898952Y-53205380D01*
X73994190Y-53205380D02*
X74089428Y-53157761D01*
X74137047Y-53062523D01*
X74137047Y-52205380D01*
X73184666Y-53205380D02*
X73184666Y-52681571D01*
X73232285Y-52586333D01*
X73327523Y-52538714D01*
X73518000Y-52538714D01*
X73613238Y-52586333D01*
X73184666Y-53157761D02*
X73279904Y-53205380D01*
X73518000Y-53205380D01*
X73613238Y-53157761D01*
X73660857Y-53062523D01*
X73660857Y-52967285D01*
X73613238Y-52872047D01*
X73518000Y-52824428D01*
X73279904Y-52824428D01*
X73184666Y-52776809D01*
X72708476Y-52538714D02*
X72708476Y-53205380D01*
X72708476Y-52633952D02*
X72660857Y-52586333D01*
X72565619Y-52538714D01*
X72422761Y-52538714D01*
X72327523Y-52586333D01*
X72279904Y-52681571D01*
X72279904Y-53205380D01*
X71375142Y-53205380D02*
X71375142Y-52205380D01*
X71375142Y-53157761D02*
X71470380Y-53205380D01*
X71660857Y-53205380D01*
X71756095Y-53157761D01*
X71803714Y-53110142D01*
X71851333Y-53014904D01*
X71851333Y-52729190D01*
X71803714Y-52633952D01*
X71756095Y-52586333D01*
X71660857Y-52538714D01*
X71470380Y-52538714D01*
X71375142Y-52586333D01*
X70184666Y-52300619D02*
X70137047Y-52253000D01*
X70041809Y-52205380D01*
X69803714Y-52205380D01*
X69708476Y-52253000D01*
X69660857Y-52300619D01*
X69613238Y-52395857D01*
X69613238Y-52491095D01*
X69660857Y-52633952D01*
X70232285Y-53205380D01*
X69613238Y-53205380D01*
X68994190Y-52205380D02*
X68898952Y-52205380D01*
X68803714Y-52253000D01*
X68756095Y-52300619D01*
X68708476Y-52395857D01*
X68660857Y-52586333D01*
X68660857Y-52824428D01*
X68708476Y-53014904D01*
X68756095Y-53110142D01*
X68803714Y-53157761D01*
X68898952Y-53205380D01*
X68994190Y-53205380D01*
X69089428Y-53157761D01*
X69137047Y-53110142D01*
X69184666Y-53014904D01*
X69232285Y-52824428D01*
X69232285Y-52586333D01*
X69184666Y-52395857D01*
X69137047Y-52300619D01*
X69089428Y-52253000D01*
X68994190Y-52205380D01*
X68279904Y-52300619D02*
X68232285Y-52253000D01*
X68137047Y-52205380D01*
X67898952Y-52205380D01*
X67803714Y-52253000D01*
X67756095Y-52300619D01*
X67708476Y-52395857D01*
X67708476Y-52491095D01*
X67756095Y-52633952D01*
X68327523Y-53205380D01*
X67708476Y-53205380D01*
X66756095Y-53205380D02*
X67327523Y-53205380D01*
X67041809Y-53205380D02*
X67041809Y-52205380D01*
X67137047Y-52348238D01*
X67232285Y-52443476D01*
X67327523Y-52491095D01*
X88613238Y-55505380D02*
X88041809Y-55505380D01*
X88327523Y-56505380D02*
X88327523Y-55505380D01*
X87708476Y-56505380D02*
X87708476Y-55505380D01*
X87279904Y-56505380D02*
X87279904Y-55981571D01*
X87327523Y-55886333D01*
X87422761Y-55838714D01*
X87565619Y-55838714D01*
X87660857Y-55886333D01*
X87708476Y-55933952D01*
X86375142Y-56505380D02*
X86375142Y-55981571D01*
X86422761Y-55886333D01*
X86518000Y-55838714D01*
X86708476Y-55838714D01*
X86803714Y-55886333D01*
X86375142Y-56457761D02*
X86470380Y-56505380D01*
X86708476Y-56505380D01*
X86803714Y-56457761D01*
X86851333Y-56362523D01*
X86851333Y-56267285D01*
X86803714Y-56172047D01*
X86708476Y-56124428D01*
X86470380Y-56124428D01*
X86375142Y-56076809D01*
X85898952Y-55838714D02*
X85898952Y-56505380D01*
X85898952Y-55933952D02*
X85851333Y-55886333D01*
X85756095Y-55838714D01*
X85613238Y-55838714D01*
X85518000Y-55886333D01*
X85470380Y-55981571D01*
X85470380Y-56505380D01*
X84994190Y-56505380D02*
X84994190Y-55505380D01*
X84898952Y-56124428D02*
X84613238Y-56505380D01*
X84613238Y-55838714D02*
X84994190Y-56219666D01*
X84232285Y-56457761D02*
X84137047Y-56505380D01*
X83946571Y-56505380D01*
X83851333Y-56457761D01*
X83803714Y-56362523D01*
X83803714Y-56314904D01*
X83851333Y-56219666D01*
X83946571Y-56172047D01*
X84089428Y-56172047D01*
X84184666Y-56124428D01*
X84232285Y-56029190D01*
X84232285Y-55981571D01*
X84184666Y-55886333D01*
X84089428Y-55838714D01*
X83946571Y-55838714D01*
X83851333Y-55886333D01*
X82756095Y-55838714D02*
X82375142Y-55838714D01*
X82613238Y-55505380D02*
X82613238Y-56362523D01*
X82565619Y-56457761D01*
X82470380Y-56505380D01*
X82375142Y-56505380D01*
X81898952Y-56505380D02*
X81994190Y-56457761D01*
X82041809Y-56410142D01*
X82089428Y-56314904D01*
X82089428Y-56029190D01*
X82041809Y-55933952D01*
X81994190Y-55886333D01*
X81898952Y-55838714D01*
X81756095Y-55838714D01*
X81660857Y-55886333D01*
X81613238Y-55933952D01*
X81565619Y-56029190D01*
X81565619Y-56314904D01*
X81613238Y-56410142D01*
X81660857Y-56457761D01*
X81756095Y-56505380D01*
X81898952Y-56505380D01*
X80518000Y-55838714D02*
X80137047Y-55838714D01*
X80375142Y-55505380D02*
X80375142Y-56362523D01*
X80327523Y-56457761D01*
X80232285Y-56505380D01*
X80137047Y-56505380D01*
X79803714Y-56505380D02*
X79803714Y-55505380D01*
X79375142Y-56505380D02*
X79375142Y-55981571D01*
X79422761Y-55886333D01*
X79518000Y-55838714D01*
X79660857Y-55838714D01*
X79756095Y-55886333D01*
X79803714Y-55933952D01*
X78518000Y-56457761D02*
X78613238Y-56505380D01*
X78803714Y-56505380D01*
X78898952Y-56457761D01*
X78946571Y-56362523D01*
X78946571Y-55981571D01*
X78898952Y-55886333D01*
X78803714Y-55838714D01*
X78613238Y-55838714D01*
X78518000Y-55886333D01*
X78470380Y-55981571D01*
X78470380Y-56076809D01*
X78946571Y-56172047D01*
X76898952Y-56457761D02*
X76994190Y-56505380D01*
X77184666Y-56505380D01*
X77279904Y-56457761D01*
X77327523Y-56362523D01*
X77327523Y-55981571D01*
X77279904Y-55886333D01*
X77184666Y-55838714D01*
X76994190Y-55838714D01*
X76898952Y-55886333D01*
X76851333Y-55981571D01*
X76851333Y-56076809D01*
X77327523Y-56172047D01*
X76422761Y-55838714D02*
X76422761Y-56838714D01*
X76422761Y-55886333D02*
X76327523Y-55838714D01*
X76137047Y-55838714D01*
X76041809Y-55886333D01*
X75994190Y-55933952D01*
X75946571Y-56029190D01*
X75946571Y-56314904D01*
X75994190Y-56410142D01*
X76041809Y-56457761D01*
X76137047Y-56505380D01*
X76327523Y-56505380D01*
X76422761Y-56457761D01*
X75089428Y-56505380D02*
X75089428Y-55505380D01*
X75089428Y-56457761D02*
X75184666Y-56505380D01*
X75375142Y-56505380D01*
X75470380Y-56457761D01*
X75518000Y-56410142D01*
X75565619Y-56314904D01*
X75565619Y-56029190D01*
X75518000Y-55933952D01*
X75470380Y-55886333D01*
X75375142Y-55838714D01*
X75184666Y-55838714D01*
X75089428Y-55886333D01*
X74613238Y-56505380D02*
X74613238Y-55838714D01*
X74613238Y-55505380D02*
X74660857Y-55553000D01*
X74613238Y-55600619D01*
X74565619Y-55553000D01*
X74613238Y-55505380D01*
X74613238Y-55600619D01*
X74232285Y-55838714D02*
X73994190Y-56505380D01*
X73756095Y-55838714D02*
X73994190Y-56505380D01*
X74089428Y-56743476D01*
X74137047Y-56791095D01*
X74232285Y-56838714D01*
X72184666Y-56457761D02*
X72279904Y-56505380D01*
X72470380Y-56505380D01*
X72565619Y-56457761D01*
X72613238Y-56410142D01*
X72660857Y-56314904D01*
X72660857Y-56029190D01*
X72613238Y-55933952D01*
X72565619Y-55886333D01*
X72470380Y-55838714D01*
X72279904Y-55838714D01*
X72184666Y-55886333D01*
X71613238Y-56505380D02*
X71708476Y-56457761D01*
X71756095Y-56410142D01*
X71803714Y-56314904D01*
X71803714Y-56029190D01*
X71756095Y-55933952D01*
X71708476Y-55886333D01*
X71613238Y-55838714D01*
X71470380Y-55838714D01*
X71375142Y-55886333D01*
X71327523Y-55933952D01*
X71279904Y-56029190D01*
X71279904Y-56314904D01*
X71327523Y-56410142D01*
X71375142Y-56457761D01*
X71470380Y-56505380D01*
X71613238Y-56505380D01*
X70851333Y-55838714D02*
X70851333Y-56505380D01*
X70851333Y-55933952D02*
X70803714Y-55886333D01*
X70708476Y-55838714D01*
X70565619Y-55838714D01*
X70470380Y-55886333D01*
X70422761Y-55981571D01*
X70422761Y-56505380D01*
X70089428Y-55838714D02*
X69708476Y-55838714D01*
X69946571Y-55505380D02*
X69946571Y-56362523D01*
X69898952Y-56457761D01*
X69803714Y-56505380D01*
X69708476Y-56505380D01*
X69375142Y-56505380D02*
X69375142Y-55838714D01*
X69375142Y-56029190D02*
X69327523Y-55933952D01*
X69279904Y-55886333D01*
X69184666Y-55838714D01*
X69089428Y-55838714D01*
X68756095Y-56505380D02*
X68756095Y-55838714D01*
X68756095Y-55505380D02*
X68803714Y-55553000D01*
X68756095Y-55600619D01*
X68708476Y-55553000D01*
X68756095Y-55505380D01*
X68756095Y-55600619D01*
X68279904Y-56505380D02*
X68279904Y-55505380D01*
X68279904Y-55886333D02*
X68184666Y-55838714D01*
X67994190Y-55838714D01*
X67898952Y-55886333D01*
X67851333Y-55933952D01*
X67803714Y-56029190D01*
X67803714Y-56314904D01*
X67851333Y-56410142D01*
X67898952Y-56457761D01*
X67994190Y-56505380D01*
X68184666Y-56505380D01*
X68279904Y-56457761D01*
X66946571Y-55838714D02*
X66946571Y-56505380D01*
X67375142Y-55838714D02*
X67375142Y-56362523D01*
X67327523Y-56457761D01*
X67232285Y-56505380D01*
X67089428Y-56505380D01*
X66994190Y-56457761D01*
X66946571Y-56410142D01*
X66613238Y-55838714D02*
X66232285Y-55838714D01*
X66470380Y-55505380D02*
X66470380Y-56362523D01*
X66422761Y-56457761D01*
X66327523Y-56505380D01*
X66232285Y-56505380D01*
X65756095Y-56505380D02*
X65851333Y-56457761D01*
X65898952Y-56410142D01*
X65946571Y-56314904D01*
X65946571Y-56029190D01*
X65898952Y-55933952D01*
X65851333Y-55886333D01*
X65756095Y-55838714D01*
X65613238Y-55838714D01*
X65518000Y-55886333D01*
X65470380Y-55933952D01*
X65422761Y-56029190D01*
X65422761Y-56314904D01*
X65470380Y-56410142D01*
X65518000Y-56457761D01*
X65613238Y-56505380D01*
X65756095Y-56505380D01*
X64994190Y-56505380D02*
X64994190Y-55838714D01*
X64994190Y-56029190D02*
X64946571Y-55933952D01*
X64898952Y-55886333D01*
X64803714Y-55838714D01*
X64708476Y-55838714D01*
X64422761Y-56457761D02*
X64327523Y-56505380D01*
X64137047Y-56505380D01*
X64041809Y-56457761D01*
X63994190Y-56362523D01*
X63994190Y-56314904D01*
X64041809Y-56219666D01*
X64137047Y-56172047D01*
X64279904Y-56172047D01*
X64375142Y-56124428D01*
X64422761Y-56029190D01*
X64422761Y-55981571D01*
X64375142Y-55886333D01*
X64279904Y-55838714D01*
X64137047Y-55838714D01*
X64041809Y-55886333D01*
X63565619Y-56410142D02*
X63518000Y-56457761D01*
X63565619Y-56505380D01*
X63613238Y-56457761D01*
X63565619Y-56410142D01*
X63565619Y-56505380D01*
X63565619Y-56124428D02*
X63613238Y-55553000D01*
X63565619Y-55505380D01*
X63518000Y-55553000D01*
X63565619Y-56124428D01*
X63565619Y-55505380D01*
D12*
X70838008Y-38537998D02*
X68498010Y-36198000D01*
X75518004Y-42677994D02*
X74618005Y-38357998D01*
X75518004Y-42677994D02*
X77678002Y-39257997D01*
X74618005Y-38357998D02*
X74798005Y-36378000D01*
X80018000Y-36378000D02*
X81637998Y-32598003D01*
X75338004Y-49517987D02*
X67418011Y-50237987D01*
X74618005Y-38357998D02*
X72098007Y-35298001D01*
X68498010Y-36198000D02*
X66158012Y-36018000D01*
X75158004Y-35118001D02*
X73898005Y-32598003D01*
X70838008Y-38537998D02*
X69938009Y-33498002D01*
X75338004Y-49517987D02*
X85057995Y-50237987D01*
X75158004Y-35118001D02*
X76598003Y-32238003D01*
X77678002Y-39257997D02*
X75158004Y-35118001D01*
X77678002Y-39257997D02*
X80018000Y-36378000D01*
X75338004Y-49517987D02*
X75518004Y-42677994D01*
X77678002Y-39077997D02*
X81277999Y-37817998D01*
X70838008Y-38537998D02*
X67958011Y-38897997D01*
X75518004Y-42677994D02*
X70838008Y-38537998D01*
X72098007Y-35298001D02*
X71918007Y-31698004D01*
X69938009Y-33498002D02*
X69038010Y-30618005D01*
X81277999Y-37817998D02*
X81997998Y-35838000D01*
X80018000Y-36378000D02*
X78758001Y-33498002D01*
M02*
