G04 #@! TF.FileFunction,Profile,NP*
%FSLAX46Y46*%
G04 Gerber Fmt 4.6, Leading zero omitted, Abs format (unit mm)*
G04 Created by KiCad (PCBNEW 4.0.2-stable) date 31-5-2016 17:43:18*
%MOMM*%
G01*
G04 APERTURE LIST*
%ADD10C,0.100000*%
%ADD11C,0.150000*%
G04 APERTURE END LIST*
D10*
D11*
X161798000Y-140716000D02*
X161798000Y-144780000D01*
X170942000Y-140716000D02*
X170942000Y-144780000D01*
X164084000Y-138430000D02*
X161798000Y-140716000D01*
X168656000Y-138430000D02*
X164084000Y-138430000D01*
X170942000Y-140716000D02*
X168656000Y-138430000D01*
X143764000Y-96520000D02*
X152400000Y-96520000D01*
X143764000Y-144780000D02*
X161798000Y-144780000D01*
X143764000Y-96520000D02*
X143764000Y-144780000D01*
X170942000Y-144780000D02*
X188976000Y-144780000D01*
X180340000Y-96520000D02*
X188976000Y-96520000D01*
X188976000Y-96520000D02*
X188976000Y-144780000D01*
X152400000Y-96520000D02*
X152400000Y-98552000D01*
X160782000Y-96520000D02*
X160782000Y-98552000D01*
X152400000Y-98552000D02*
X160782000Y-98552000D01*
X171958000Y-96520000D02*
X171958000Y-98552000D01*
X180340000Y-96520000D02*
X180340000Y-98552000D01*
X171958000Y-98552000D02*
X180340000Y-98552000D01*
X171450000Y-96520000D02*
X171958000Y-96520000D01*
X161290000Y-96520000D02*
X160782000Y-96520000D01*
X162560000Y-96520000D02*
X161290000Y-96520000D01*
X171450000Y-96520000D02*
X162560000Y-96520000D01*
M02*
