G04 #@! TF.FileFunction,Copper,L2,Bot,Signal*
%FSLAX46Y46*%
G04 Gerber Fmt 4.6, Leading zero omitted, Abs format (unit mm)*
G04 Created by KiCad (PCBNEW 4.0.2-stable) date 31-5-2016 17:43:18*
%MOMM*%
G01*
G04 APERTURE LIST*
%ADD10C,0.100000*%
%ADD11R,2.000000X1.900000*%
%ADD12C,1.900000*%
%ADD13C,2.100000*%
%ADD14C,1.750000*%
%ADD15C,1.524000*%
%ADD16R,1.350000X1.350000*%
%ADD17C,1.350000*%
%ADD18R,1.397000X1.397000*%
%ADD19C,1.397000*%
%ADD20C,2.500000*%
%ADD21R,1.300000X1.300000*%
%ADD22C,1.300000*%
%ADD23C,4.500880*%
%ADD24C,2.000000*%
%ADD25C,1.800000*%
%ADD26C,0.600000*%
%ADD27C,0.500000*%
%ADD28C,1.500000*%
%ADD29C,2.000000*%
%ADD30C,3.000000*%
%ADD31C,1.800000*%
G04 APERTURE END LIST*
D10*
D11*
X177800000Y-107950000D03*
D12*
X177800000Y-110490000D03*
D13*
X187370000Y-102820000D03*
D14*
X186110000Y-100330000D03*
X181610000Y-100330000D03*
D13*
X180360000Y-102820000D03*
D15*
X150114000Y-106680000D03*
X152654000Y-109220000D03*
X147574000Y-109220000D03*
D16*
X152654000Y-102870000D03*
D17*
X154654000Y-102870000D03*
X156654000Y-102870000D03*
X158654000Y-102870000D03*
X160654000Y-102870000D03*
X162654000Y-102870000D03*
X164654000Y-102870000D03*
X166654000Y-102870000D03*
X152654000Y-100870000D03*
X154654000Y-100870000D03*
X156654000Y-100870000D03*
X158654000Y-100870000D03*
X160654000Y-100870000D03*
X162654000Y-100870000D03*
X164654000Y-100870000D03*
X166654000Y-100870000D03*
D18*
X152654000Y-114300000D03*
D19*
X145034000Y-114300000D03*
D18*
X145034000Y-111760000D03*
D19*
X152654000Y-111760000D03*
D20*
X152654000Y-118110000D03*
X145034000Y-118110000D03*
X152654000Y-133350000D03*
X145034000Y-130810000D03*
D19*
X156210000Y-106680000D03*
X163830000Y-106680000D03*
X173990000Y-106680000D03*
X166370000Y-106680000D03*
D21*
X157480000Y-114300000D03*
D22*
X157480000Y-111800000D03*
D21*
X172720000Y-111760000D03*
D22*
X172720000Y-114260000D03*
D19*
X170180000Y-102870000D03*
X177800000Y-102870000D03*
D23*
X154940000Y-139700000D03*
X184150000Y-142240000D03*
X146304000Y-142240000D03*
D24*
X186436000Y-129540000D03*
X159766000Y-124460000D03*
X186436000Y-124460000D03*
X157226000Y-129540000D03*
X157226000Y-124460000D03*
X186436000Y-119380000D03*
X186436000Y-134620000D03*
D25*
X165100000Y-115570000D03*
X167640000Y-115570000D03*
X162560000Y-115570000D03*
D26*
X162560000Y-111760000D03*
X167640000Y-111760000D03*
D27*
X164654000Y-102870000D02*
X164654000Y-104964000D01*
X164654000Y-104964000D02*
X166370000Y-106680000D01*
D28*
X147574000Y-109220000D02*
X145034000Y-111760000D01*
X145034000Y-111760000D02*
X145034000Y-114300000D01*
X145034000Y-114300000D02*
X145034000Y-118110000D01*
X162560000Y-116840000D02*
X162560000Y-117856000D01*
X162560000Y-117856000D02*
X165354000Y-120650000D01*
X165354000Y-120650000D02*
X166370000Y-120650000D01*
X166370000Y-120650000D02*
X172720000Y-120650000D01*
X162560000Y-116840000D02*
X162560000Y-115570000D01*
X186436000Y-134620000D02*
X172720000Y-120650000D01*
X157480000Y-114300000D02*
X161290000Y-114300000D01*
X161290000Y-114300000D02*
X162560000Y-115570000D01*
X152654000Y-114300000D02*
X157480000Y-114300000D01*
X152654000Y-114300000D02*
X152654000Y-118110000D01*
D29*
X157226000Y-129540000D02*
X152654000Y-133350000D01*
D30*
X152654000Y-133350000D02*
X154940000Y-139700000D01*
D29*
X159766000Y-124460000D02*
X177546000Y-142240000D01*
X177546000Y-142240000D02*
X184150000Y-142240000D01*
X157226000Y-124460000D02*
X159766000Y-124460000D01*
D27*
X150114000Y-106680000D02*
X156210000Y-106680000D01*
D28*
X166654000Y-100870000D02*
X171704000Y-100870000D01*
D31*
X171736000Y-100870000D02*
X176276000Y-105410000D01*
X176276000Y-105410000D02*
X177800000Y-105410000D01*
X177800000Y-105410000D02*
X181610000Y-105410000D01*
X171704000Y-100870000D02*
X171736000Y-100870000D01*
X186436000Y-119380000D02*
X186436000Y-124460000D01*
X168910000Y-114300000D02*
X172680000Y-114300000D01*
X172680000Y-114300000D02*
X181610000Y-114300000D01*
X167640000Y-111760000D02*
X167640000Y-113030000D01*
X167640000Y-113030000D02*
X168910000Y-114300000D01*
X157440000Y-111760000D02*
X162560000Y-111760000D01*
X181610000Y-105410000D02*
X181610000Y-114300000D01*
X167640000Y-115570000D02*
X168910000Y-114300000D01*
X181610000Y-114300000D02*
X186436000Y-119380000D01*
X152654000Y-111760000D02*
X157440000Y-111760000D01*
D28*
X164654000Y-100870000D02*
X166654000Y-100870000D01*
D31*
X152654000Y-109220000D02*
X152654000Y-111760000D01*
X186110000Y-100330000D02*
X186110000Y-100910000D01*
X186110000Y-100910000D02*
X181610000Y-105410000D01*
D27*
X162654000Y-102870000D02*
X162654000Y-105504000D01*
X162654000Y-105504000D02*
X163830000Y-106680000D01*
X163670000Y-106520000D02*
X163830000Y-106680000D01*
D28*
X156654000Y-104330000D02*
X161544000Y-109220000D01*
X165100000Y-110490000D02*
X163830000Y-109220000D01*
X156654000Y-104330000D02*
X156654000Y-102870000D01*
X161544000Y-109220000D02*
X163830000Y-109220000D01*
X168910000Y-109220000D02*
X168910000Y-102870000D01*
X165100000Y-115570000D02*
X165100000Y-116840000D01*
X165100000Y-116840000D02*
X166370000Y-118110000D01*
X166370000Y-118110000D02*
X175260000Y-118110000D01*
X175260000Y-118110000D02*
X186436000Y-129540000D01*
X170180000Y-102870000D02*
X168910000Y-102870000D01*
X168910000Y-102870000D02*
X166654000Y-102870000D01*
X167670000Y-109220000D02*
X167640000Y-109220000D01*
X165100000Y-115570000D02*
X165100000Y-110490000D01*
X170180000Y-109220000D02*
X172720000Y-111760000D01*
X168910000Y-109220000D02*
X170180000Y-109220000D01*
X166370000Y-109220000D02*
X167640000Y-109220000D01*
X165100000Y-110490000D02*
X166370000Y-109220000D01*
X167640000Y-109220000D02*
X168910000Y-109220000D01*
X177800000Y-110490000D02*
X173990000Y-110490000D01*
X173990000Y-110490000D02*
X172720000Y-111760000D01*
D27*
X181610000Y-100330000D02*
X177800000Y-100330000D01*
X170180000Y-99060000D02*
X170688000Y-99060000D01*
X160654000Y-100870000D02*
X161670000Y-99440000D01*
X162050000Y-99060000D02*
X170180000Y-99060000D01*
X161670000Y-99440000D02*
X162050000Y-99060000D01*
X177800000Y-100330000D02*
X177800000Y-102870000D01*
X176530000Y-99060000D02*
X177800000Y-100330000D01*
X170688000Y-99060000D02*
X176530000Y-99060000D01*
X170688000Y-99060000D02*
X170688000Y-99060000D01*
D30*
X145034000Y-130810000D02*
X145288000Y-130810000D01*
X145288000Y-130810000D02*
X145288000Y-141732000D01*
X145288000Y-141732000D02*
X145796000Y-142240000D01*
X145796000Y-142240000D02*
X146304000Y-142240000D01*
D27*
X173990000Y-106680000D02*
X175260000Y-107950000D01*
X175260000Y-107950000D02*
X177800000Y-107950000D01*
M02*
