M48
;DRILL file {KiCad 4.0.2-stable} date 31-5-2016 17:43:24
;FORMAT={-:-/ absolute / inch / decimal}
FMAT,2
INCH,TZ
T1C0.016
T2C0.031
T3C0.032
T4C0.039
T5C0.039
T6C0.039
T7C0.047
T8C0.051
T9C0.079
%
G90
G05
M72
T1
X6.4Y-4.4
X6.6Y-4.4
T2
X5.71Y-4.65
X5.81Y-4.3
X5.91Y-4.2
X6.01Y-3.9713
X6.01Y-4.05
X6.01Y-4.3
X6.01Y-4.65
X6.0887Y-3.9713
X6.0887Y-4.05
X6.1675Y-3.9713
X6.1675Y-4.05
X6.2Y-4.4016
X6.2Y-4.5
X6.2462Y-3.9713
X6.2462Y-4.05
X6.325Y-3.9713
X6.325Y-4.05
X6.4037Y-3.9713
X6.4037Y-4.05
X6.4824Y-3.9713
X6.4824Y-4.05
X6.5612Y-3.9713
X6.5612Y-4.05
X6.8Y-4.4
X6.8Y-4.4984
T3
X5.71Y-4.4
X5.71Y-4.5
X6.01Y-4.4
X6.01Y-4.5
X6.15Y-4.2
X6.45Y-4.2
X6.55Y-4.2
X6.7Y-4.05
X6.85Y-4.2
X7.Y-4.05
T4
X7.15Y-3.95
X7.3272Y-3.95
T5
X6.19Y-4.9
X6.19Y-5.1
X6.29Y-4.9
X6.4Y-4.55
X6.5Y-4.55
X6.6Y-4.55
X7.34Y-4.7
X7.34Y-4.9
X7.34Y-5.1
X7.34Y-5.3
T6
X7.Y-4.25
X7.Y-4.35
T7
X5.71Y-5.15
X6.01Y-5.25
T8
X7.1008Y-4.048
X7.3768Y-4.048
T9
X5.76Y-5.6
X6.1Y-5.5
X7.25Y-5.6
T0
M30
