M48
; DRILL file {KiCad 5.1.9} date Mon Jan 25 20:02:58 2021
; FORMAT={-:-/ absolute / inch / decimal}
; #@! TF.CreationDate,2021-01-25T20:02:58+01:00
; #@! TF.GenerationSoftware,Kicad,Pcbnew,5.1.9
; #@! TF.FileFunction,Plated,1,2,PTH
FMAT,2
INCH
T1C0.0118
T2C0.0157
T3C0.0276
T4C0.0394
T5C0.0433
%
G90
G05
T1
X3.6811Y-1.2606
X3.6811Y-1.3
X3.6811Y-1.3394
X3.6811Y-1.3787
X3.6811Y-1.4181
X3.7205Y-1.2606
X3.7205Y-1.3
X3.7205Y-1.3394
X3.7205Y-1.3787
X3.7205Y-1.4181
X3.7598Y-1.2606
X3.7598Y-1.3
X3.7598Y-1.3394
X3.7598Y-1.3787
X3.7598Y-1.4181
X3.7992Y-1.2606
X3.7992Y-1.3
X3.7992Y-1.3394
X3.7992Y-1.3787
X3.7992Y-1.4181
X3.8386Y-1.2606
X3.8386Y-1.3
X3.8386Y-1.3394
X3.8386Y-1.3787
X3.8386Y-1.4181
T2
X1.025Y-1.685
X1.035Y-1.13
X1.06Y-1.095
X1.07Y-1.685
X1.085Y-1.13
X1.115Y-1.41
X1.12Y-1.28
X1.12Y-1.645
X1.125Y-1.33
X1.22Y-1.69
X1.25Y-1.21
X1.255Y-1.735
X1.26Y-1.82
X1.2625Y-1.035
X1.3075Y-1.645
X1.315Y-2.23
X1.32Y-2.315
X1.345Y-1.06
X1.3575Y-1.6475
X1.37Y-2.14
X1.395Y-1.285
X1.395Y-1.33
X1.395Y-2.315
X1.4Y-1.165
X1.4025Y-2.105
X1.44Y-1.2
X1.455Y-1.69
X1.455Y-1.775
X1.53Y-1.22
X1.535Y-2.135
X1.5588Y-1.6612
X1.565Y-1.735
X1.58Y-1.37
X1.595Y-2.05
X1.61Y-1.545
X1.625Y-1.425
X1.6275Y-0.815
X1.6575Y-1.0225
X1.67Y-2.32
X1.7025Y-0.815
X1.7025Y-0.985
X1.71Y-1.995
X1.725Y-2.32
X1.745Y-1.0225
X1.7575Y-1.5975
X1.77Y-1.37
X1.775Y-2.0
X1.7963Y-1.2438
X1.81Y-2.2125
X1.8194Y-1.87
X1.82Y-1.505
X1.83Y-1.145
X1.8337Y-1.835
X1.8662Y-2.0021
X1.88Y-1.395
X1.9025Y-2.0125
X1.905Y-1.275
X1.9225Y-0.8825
X1.94Y-1.235
X1.97Y-1.275
X1.97Y-2.285
X1.975Y-1.9275
X1.985Y-1.385
X1.99Y-0.9425
X1.99Y-1.1
X1.99Y-1.15
X1.99Y-1.66
X1.995Y-1.7375
X2.0025Y-1.955
X2.01Y-1.415
X2.02Y-1.765
X2.045Y-2.1475
X2.055Y-1.18
X2.0725Y-2.1925
X2.1Y-1.9375
X2.1Y-2.1475
X2.11Y-1.7225
X2.13Y-1.9925
X2.1475Y-2.285
X2.16Y-1.9375
X2.175Y-0.805
X2.18Y-0.855
X2.215Y-0.98
X2.2287Y-0.9448
X2.245Y-1.8425
X2.255Y-1.315
X2.29Y-0.84
X2.2975Y-1.675
X2.345Y-1.88
X2.4225Y-1.7975
X2.43Y-2.145
X2.435Y-1.105
X2.445Y-2.075
X2.455Y-2.3
X2.485Y-1.82
X2.489Y-2.081
X2.498Y-2.255
X2.51Y-1.79
X2.52Y-1.195
X2.535Y-1.29
X2.559Y-2.203
X2.56Y-1.365
X2.5825Y-1.745
X2.595Y-1.245
X2.614Y-1.897
X2.62Y-1.815
X2.625Y-1.275
X2.625Y-1.34
X2.626Y-1.936
X2.64Y-1.145
X2.65Y-1.245
X2.6564Y-1.319
X2.659Y-2.049
X2.6749Y-1.969
X2.6955Y-1.4055
X2.7009Y-2.0049
X2.7268Y-2.0383
X2.7528Y-2.072
X2.755Y-2.31
X2.765Y-1.395
X2.78Y-1.73
X2.785Y-2.265
X2.788Y-1.947
X2.8026Y-1.9839
X2.805Y-1.421
X2.815Y-2.31
X2.8229Y-2.0158
X2.8288Y-0.8999
X2.839Y-2.05
X2.87Y-1.09
X2.87Y-1.16
X2.87Y-1.407
X2.8725Y-1.3425
X2.875Y-1.2275
X2.88Y-1.67
X2.905Y-1.705
X2.9154Y-2.0494
X2.965Y-1.385
X2.9759Y-2.1991
X2.98Y-1.42
X3.004Y-1.964
X3.04Y-1.3275
X3.048Y-1.96
X3.051Y-2.033
X3.055Y-2.2
X3.0625Y-1.175
X3.07Y-0.99
X3.08Y-1.325
X3.0985Y-1.4315
X3.103Y-1.282
X3.105Y-2.084
X3.1075Y-1.21
X3.1275Y-1.7325
X3.155Y-1.215
X3.1661Y-1.385
X3.17Y-1.425
X3.17Y-1.4628
X3.1725Y-1.7375
X3.18Y-1.245
X3.1802Y-1.9918
X3.2575Y-1.205
X3.28Y-1.375
X3.294Y-1.6864
X3.305Y-1.48
X3.305Y-1.615
X3.31Y-1.435
X3.31Y-2.28
X3.315Y-1.655
X3.33Y-1.73
X3.3475Y-1.0325
X3.355Y-2.24
X3.395Y-2.285
X3.47Y-2.24
X3.475Y-2.2
X3.4975Y-1.03
X3.505Y-1.315
X3.509Y-1.668
X3.51Y-1.37
X3.516Y-1.571
X3.52Y-2.228
X3.533Y-1.925
X3.541Y-2.106
X3.5442Y-1.712
X3.5471Y-1.5196
X3.549Y-1.072
X3.5512Y-1.3634
X3.561Y-1.756
X3.5616Y-1.4012
X3.565Y-1.265
X3.5751Y-1.69
X3.583Y-1.952
X3.59Y-1.1462
X3.595Y-1.52
X3.609Y-1.717
X3.621Y-2.254
X3.6263Y-1.1193
X3.632Y-2.186
X3.6469Y-1.5331
X3.647Y-2.061
X3.664Y-1.675
X3.679Y-2.11
X3.69Y-1.4925
X3.693Y-1.98
X3.703Y-1.668
X3.707Y-2.083
X3.7299Y-2.0179
X3.7525Y-1.5425
X3.755Y-1.485
X3.756Y-2.104
X3.772Y-1.939
X3.783Y-1.86
X3.785Y-1.52
X3.799Y-1.614
X3.802Y-2.202
X3.8094Y-1.7774
X3.824Y-2.087
X3.84Y-2.202
X3.85Y-2.0583
X3.876Y-2.0264
X3.8767Y-1.7173
X3.882Y-2.203
X3.895Y-1.23
X3.9Y-1.185
X3.9Y-1.305
X3.9Y-1.3825
X3.902Y-1.9971
X3.906Y-1.517
X3.923Y-2.205
X3.934Y-1.47
X3.96Y-1.416
X3.9654Y-1.6854
X3.991Y-1.317
X3.992Y-1.599
X4.021Y-1.162
X4.035Y-1.89
X4.0395Y-2.1804
X4.0425Y-1.7275
X4.045Y-2.3
X4.047Y-1.117
X4.051Y-1.803
X4.063Y-2.21
X4.09Y-2.09
X4.096Y-2.29
X4.18Y-2.065
X4.205Y-2.025
X4.2117Y-1.4173
X4.23Y-2.065
X4.241Y-1.738
X4.25Y-1.845
X4.25Y-1.905
X4.25Y-2.26
X4.2512Y-1.4673
X4.258Y-1.11
X4.2725Y-1.645
X4.275Y-2.225
X4.279Y-1.221
X4.29Y-1.765
X4.305Y-2.26
X4.3147Y-1.3173
X4.3415Y-1.2375
X4.35Y-2.11
X4.3829Y-1.5177
X4.385Y-2.145
X4.408Y-1.63
X4.43Y-1.229
X4.4335Y-1.4775
X4.436Y-2.291
X4.437Y-2.241
X4.445Y-2.08
X4.455Y-1.572
X4.455Y-1.765
X4.47Y-1.81
X4.471Y-1.413
X4.477Y-1.216
X4.488Y-1.65
X4.503Y-1.306
X4.5046Y-1.2419
X4.5125Y-1.0375
X4.515Y-1.73
X4.515Y-1.88
X4.533Y-1.367
X4.535Y-1.0925
X4.5525Y-1.1641
X4.56Y-2.067
X4.5625Y-1.0575
X4.5635Y-1.7255
X4.5646Y-1.6416
X4.567Y-1.387
X4.57Y-2.315
X4.576Y-1.844
X4.5998Y-2.187
X4.6Y-1.24
X4.6163Y-2.3133
X4.6276Y-2.2214
X4.654Y-2.311
X4.667Y-2.186
X4.693Y-2.214
X4.7192Y-2.1868
X4.7225Y-0.885
X4.726Y-2.309
X4.76Y-0.84
X4.7638Y-2.308
X4.785Y-1.215
X4.8Y-0.885
X4.8Y-2.2
X4.815Y-1.255
X4.825Y-2.05
X4.825Y-2.32
X4.84Y-1.215
X4.84Y-2.2
X4.855Y-2.01
X4.865Y-2.32
X4.88Y-2.05
T3
X1.1039Y-0.9356
X1.2948Y-0.9356
T4
X1.069Y-1.775
X1.069Y-1.875
X1.069Y-1.975
X1.069Y-2.075
X1.069Y-2.175
X1.069Y-2.275
X1.169Y-1.775
X1.169Y-1.875
X1.169Y-1.975
X1.169Y-2.075
X1.169Y-2.175
X1.169Y-2.275
X1.8725Y-2.2775
X2.23Y-2.2775
T5
G00X1.0576Y-0.8293
M15
G01X1.0576Y-0.8293
M16
G05
G00X1.3411Y-0.8293
M15
G01X1.3411Y-0.8293
M16
G05
T0
M30
