<svg xmlns="http://www.w3.org/2000/svg" viewBox="0 0 900 900" width="900" height="900">
	<defs>
		<clipPath clipPathUnits="userSpaceOnUse" id="cp1">
			<path d="M0 0L900 0L900 900L0 900Z" />
		</clipPath>
	</defs>
	<style>
		tspan { white-space:pre }
		.shp0 { fill: none;stroke: #4f3ee6;stroke-width: 20 }
		.shp1 { fill: none;stroke: #4f3ee6;stroke-linecap:round;stroke-width: 28 }
		.shp2 { fill: none;stroke: #4f3ee6;stroke-linecap:round;stroke-linejoin:round;stroke-width: 28 }
		.shp3 { fill: none;stroke: #4f3ee6;stroke-linecap:round;stroke-linejoin:round;stroke-width: 16 }
		.shp4 { fill: #ffffff;stroke: #4f3ee6;stroke-width: 28 }
		.shp5 { fill: #ffffff;stroke: #4f3ee6;stroke-width: 18 }
	</style>
	<g id="Artboard 1" clip-path="url(#cp1)">
		<g id="IR">
			<path id="Ellipse 1" class="shp0" d="M450.47 261.95C460.41 261.95 468.46 270.01 468.46 279.94C468.46 289.88 460.41 297.93 450.47 297.93C440.54 297.93 432.48 289.88 432.48 279.94C432.48 270.01 440.54 261.95 450.47 261.95Z" />
			<path id="Shape 1" class="shp1" d="M387.34 217.47C402.67 196.87 427.05 184.82 452.76 185.41C479.48 186.03 504.02 200.21 518.13 222.77" />
			<path id="Shape 9" class="shp2" d="M613.04 407.18" />
			<path id="Shape 2" class="shp1" d="M357.91 168.4C384.72 137.13 424.5 119.48 465.85 121.96C501.9 124.11 535.19 141.36 558.38 168.83" />
			<path id="Shape 3" class="shp1" d="M327.16 123.92C360.63 88.67 406.74 68.04 455.38 67C506.79 65.91 556.17 86.81 591.5 124.07" />
		</g>
		<g id="wires">
			<path id="Shape 6" class="shp2" d="M291 474L160 476L90 422" />
			<path id="Ellipse 3" class="shp3" d="M65.5 375C79.03 375 90 385.97 90 399.5C90 413.03 79.03 424 65.5 424C51.97 424 41 413.03 41 399.5C41 385.97 51.97 375 65.5 375Z" />
			<path id="Ellipse 3" class="shp3" d="M96.5 521C110.03 521 121 531.97 121 545.5C121 559.03 110.03 570 96.5 570C82.97 570 72 559.03 72 545.5C72 531.97 82.97 521 96.5 521Z" />
			<path id="Ellipse 3" class="shp3" d="M132.5 659C146.03 659 157 669.97 157 683.5C157 697.03 146.03 708 132.5 708C118.97 708 108 697.03 108 683.5C108 669.97 118.97 659 132.5 659Z" />
			<path id="Shape 7" class="shp2" d="M291 540L129 545" />
			<path id="Shape 8" class="shp2" d="M296 600L199 604L153 659" />
		</g>
		<g id="wires">
			<path id="Shape 6" class="shp2" d="M602 468L733 470L803 416" />
			<path id="Ellipse 3" class="shp3" d="M827.5 369C813.97 369 803 379.97 803 393.5C803 407.03 813.97 418 827.5 418C841.03 418 852 407.03 852 393.5C852 379.97 841.03 369 827.5 369Z" />
			<path id="Ellipse 3" class="shp3" d="M796.5 515C782.97 515 772 525.97 772 539.5C772 553.03 782.97 564 796.5 564C810.03 564 821 553.03 821 539.5C821 525.97 810.03 515 796.5 515Z" />
			<path id="Ellipse 3" class="shp3" d="M760.5 653C746.97 653 736 663.97 736 677.5C736 691.03 746.97 702 760.5 702C774.03 702 785 691.03 785 677.5C785 663.97 774.03 653 760.5 653Z" />
			<path id="Shape 7" class="shp2" d="M602 534L764 539" />
			<path id="Shape 8" class="shp2" d="M597 594L694 598L740 653" />
		</g>
		<path id="Rounded Rectangle 1" class="shp4" d="M360.84 337.08L532.7 337.08C560.31 337.08 582.7 359.46 582.7 387.08L582.7 714.14C582.7 741.75 560.31 764.14 532.7 764.14L360.84 764.14C333.23 764.14 310.84 741.75 310.84 714.14L310.84 387.08C310.84 359.46 333.23 337.08 360.84 337.08ZM378 489Z" />
		<g id="Buttons">
			<path id="Ellipse 4" class="shp5" d="M378 489C389.6 489 399 498.4 399 510C399 521.6 389.6 531 378 531C366.4 531 357 521.6 357 510C357 498.4 366.4 489 378 489ZM378 489C389.6 489 399 498.4 399 510C399 521.6 389.6 531 378 531C366.4 531 357 521.6 357 510C357 498.4 366.4 489 378 489ZM378 489C389.6 489 399 498.4 399 510C399 521.6 389.6 531 378 531C366.4 531 357 521.6 357 510C357 498.4 366.4 489 378 489Z" />
			<path id="Ellipse 4" class="shp5" d="M514 488C525.6 488 535 497.4 535 509C535 520.6 525.6 530 514 530C502.4 530 493 520.6 493 509C493 497.4 502.4 488 514 488ZM514 488C525.6 488 535 497.4 535 509C535 520.6 525.6 530 514 530C502.4 530 493 520.6 493 509C493 497.4 502.4 488 514 488ZM514 488C525.6 488 535 497.4 535 509C535 520.6 525.6 530 514 530C502.4 530 493 520.6 493 509C493 497.4 502.4 488 514 488Z" />
			<path id="Ellipse 4" class="shp5" d="M514 578C525.6 578 535 587.4 535 599C535 610.6 525.6 620 514 620C502.4 620 493 610.6 493 599C493 587.4 502.4 578 514 578ZM514 578C525.6 578 535 587.4 535 599C535 610.6 525.6 620 514 620C502.4 620 493 610.6 493 599C493 587.4 502.4 578 514 578ZM514 578C525.6 578 535 587.4 535 599C535 610.6 525.6 620 514 620C502.4 620 493 610.6 493 599C493 587.4 502.4 578 514 578Z" />
			<path id="Ellipse 4" class="shp5" d="M378 579C389.6 579 399 588.4 399 600C399 611.6 389.6 621 378 621C366.4 621 357 611.6 357 600C357 588.4 366.4 579 378 579ZM378 579C389.6 579 399 588.4 399 600C399 611.6 389.6 621 378 621C366.4 621 357 611.6 357 600C357 588.4 366.4 579 378 579ZM378 579C389.6 579 399 588.4 399 600C399 611.6 389.6 621 378 621C366.4 621 357 611.6 357 600C357 588.4 366.4 579 378 579Z" />
			<path id="Ellipse 4" class="shp5" d="M378 395C389.6 395 399 404.4 399 416C399 427.6 389.6 437 378 437C366.4 437 357 427.6 357 416C357 404.4 366.4 395 378 395ZM378 395C389.6 395 399 404.4 399 416C399 427.6 389.6 437 378 437C366.4 437 357 427.6 357 416C357 404.4 366.4 395 378 395ZM378 395C389.6 395 399 404.4 399 416C399 427.6 389.6 437 378 437C366.4 437 357 427.6 357 416C357 404.4 366.4 395 378 395Z" />
			<path id="Ellipse 4" class="shp5" d="M514 395C525.6 395 535 404.4 535 416C535 427.6 525.6 437 514 437C502.4 437 493 427.6 493 416C493 404.4 502.4 395 514 395ZM514 395C525.6 395 535 404.4 535 416C535 427.6 525.6 437 514 437C502.4 437 493 427.6 493 416C493 404.4 502.4 395 514 395ZM514 395C525.6 395 535 404.4 535 416C535 427.6 525.6 437 514 437C502.4 437 493 427.6 493 416C493 404.4 502.4 395 514 395Z" />
		</g>
	</g>
</svg>